<mxfile host="app.diagrams.net" agent="Mozilla/5.0 (Windows NT 10.0; Win64; x64) AppleWebKit/537.36 (KHTML, like Gecko) Chrome/137.0.0.0 Safari/537.36" version="27.1.6" pages="2">
  <diagram name="Página-1" id="As-ylru9SlLK7KS7QaXn">
    <mxGraphModel grid="1" page="1" gridSize="10" guides="1" tooltips="1" connect="1" arrows="1" fold="1" pageScale="1" pageWidth="827" pageHeight="1169" math="0" shadow="0">
      <root>
        <mxCell id="0" />
        <mxCell id="1" parent="0" />
        <mxCell id="sEuESF4rzVyC_rkCTEI_-43" value="Administrador" style="html=1;whiteSpace=wrap;" vertex="1" parent="1">
          <mxGeometry x="154" y="189" width="110" height="50" as="geometry" />
        </mxCell>
        <mxCell id="sEuESF4rzVyC_rkCTEI_-44" value="Sistema&lt;span style=&quot;color: rgba(0, 0, 0, 0); font-family: monospace; font-size: 0px; text-align: start; text-wrap-mode: nowrap;&quot;&gt;%3CmxGraphModel%3E%3Croot%3E%3CmxCell%20id%3D%220%22%2F%3E%3CmxCell%20id%3D%221%22%20parent%3D%220%22%2F%3E%3CmxCell%20id%3D%222%22%20value%3D%22Usuario%22%20style%3D%22html%3D1%3BwhiteSpace%3Dwrap%3B%22%20vertex%3D%221%22%20parent%3D%221%22%3E%3CmxGeometry%20x%3D%2270%22%20y%3D%2240%22%20width%3D%22110%22%20height%3D%2250%22%20as%3D%22geometry%22%2F%3E%3C%2FmxCell%3E%3C%2Froot%3E%3C%2FmxGraphModel%3E&lt;/span&gt;" style="html=1;whiteSpace=wrap;" vertex="1" parent="1">
          <mxGeometry x="359" y="189" width="110" height="50" as="geometry" />
        </mxCell>
        <mxCell id="sEuESF4rzVyC_rkCTEI_-45" value="Base de datos" style="html=1;whiteSpace=wrap;" vertex="1" parent="1">
          <mxGeometry x="559" y="189" width="110" height="50" as="geometry" />
        </mxCell>
        <mxCell id="sEuESF4rzVyC_rkCTEI_-46" value="Administrador" style="html=1;whiteSpace=wrap;" vertex="1" parent="1">
          <mxGeometry x="159" y="1040" width="110" height="50" as="geometry" />
        </mxCell>
        <mxCell id="09ivK3anF053aiVqrCgx-15" style="edgeStyle=orthogonalEdgeStyle;rounded=0;orthogonalLoop=1;jettySize=auto;html=1;endArrow=none;startFill=0;dashed=1;" edge="1" parent="1" source="sEuESF4rzVyC_rkCTEI_-47" target="sEuESF4rzVyC_rkCTEI_-44">
          <mxGeometry relative="1" as="geometry">
            <mxPoint x="496.5" y="684" as="targetPoint" />
            <Array as="points" />
          </mxGeometry>
        </mxCell>
        <mxCell id="sEuESF4rzVyC_rkCTEI_-47" value="Sistema&lt;span style=&quot;color: rgba(0, 0, 0, 0); font-family: monospace; font-size: 0px; text-align: start; text-wrap-mode: nowrap;&quot;&gt;%3CmxGraphModel%3E%3Croot%3E%3CmxCell%20id%3D%220%22%2F%3E%3CmxCell%20id%3D%221%22%20parent%3D%220%22%2F%3E%3CmxCell%20id%3D%222%22%20value%3D%22Usuario%22%20style%3D%22html%3D1%3BwhiteSpace%3Dwrap%3B%22%20vertex%3D%221%22%20parent%3D%221%22%3E%3CmxGeometry%20x%3D%2270%22%20y%3D%2240%22%20width%3D%22110%22%20height%3D%2250%22%20as%3D%22geometry%22%2F%3E%3C%2FmxCell%3E%3C%2Froot%3E%3C%2FmxGraphModel%3E&lt;/span&gt;" style="html=1;whiteSpace=wrap;" vertex="1" parent="1">
          <mxGeometry x="360.25" y="1040" width="110" height="50" as="geometry" />
        </mxCell>
        <mxCell id="sEuESF4rzVyC_rkCTEI_-48" value="Base de datos" style="html=1;whiteSpace=wrap;" vertex="1" parent="1">
          <mxGeometry x="559" y="1040" width="110" height="50" as="geometry" />
        </mxCell>
        <mxCell id="sEuESF4rzVyC_rkCTEI_-50" value="" style="endArrow=none;dashed=1;html=1;rounded=0;entryX=0.5;entryY=1;entryDx=0;entryDy=0;exitX=0.5;exitY=0;exitDx=0;exitDy=0;" edge="1" parent="1" source="sEuESF4rzVyC_rkCTEI_-57" target="sEuESF4rzVyC_rkCTEI_-45">
          <mxGeometry width="50" height="50" relative="1" as="geometry">
            <mxPoint x="429" y="599" as="sourcePoint" />
            <mxPoint x="429" y="259" as="targetPoint" />
          </mxGeometry>
        </mxCell>
        <mxCell id="sEuESF4rzVyC_rkCTEI_-51" value="" style="endArrow=none;dashed=1;html=1;rounded=0;entryX=0.5;entryY=1;entryDx=0;entryDy=0;exitX=0.5;exitY=0;exitDx=0;exitDy=0;" edge="1" parent="1" source="sEuESF4rzVyC_rkCTEI_-53" target="sEuESF4rzVyC_rkCTEI_-44">
          <mxGeometry width="50" height="50" relative="1" as="geometry">
            <mxPoint x="389" y="469" as="sourcePoint" />
            <mxPoint x="439" y="419" as="targetPoint" />
          </mxGeometry>
        </mxCell>
        <mxCell id="sEuESF4rzVyC_rkCTEI_-53" value="" style="html=1;points=[[0,0,0,0,5],[0,1,0,0,-5],[1,0,0,0,5],[1,1,0,0,-5]];perimeter=orthogonalPerimeter;outlineConnect=0;targetShapes=umlLifeline;portConstraint=eastwest;newEdgeStyle={&quot;curved&quot;:0,&quot;rounded&quot;:0};" vertex="1" parent="1">
          <mxGeometry x="409" y="390" width="10" height="30" as="geometry" />
        </mxCell>
        <mxCell id="sEuESF4rzVyC_rkCTEI_-54" value="" style="endArrow=classic;html=1;rounded=0;entryX=0;entryY=0;entryDx=0;entryDy=5;entryPerimeter=0;" edge="1" parent="1" target="sEuESF4rzVyC_rkCTEI_-53">
          <mxGeometry width="50" height="50" relative="1" as="geometry">
            <mxPoint x="219" y="395" as="sourcePoint" />
            <mxPoint x="319" y="370" as="targetPoint" />
          </mxGeometry>
        </mxCell>
        <mxCell id="sEuESF4rzVyC_rkCTEI_-55" value="3. Pulsa botón &quot;Crear cuenta&quot;" style="text;html=1;align=center;verticalAlign=middle;whiteSpace=wrap;rounded=0;" vertex="1" parent="1">
          <mxGeometry x="209" y="370" width="211" height="20" as="geometry" />
        </mxCell>
        <mxCell id="sEuESF4rzVyC_rkCTEI_-62" value="" style="endArrow=classic;html=1;rounded=0;fontSize=12;startSize=8;endSize=8;edgeStyle=orthogonalEdgeStyle;entryX=1;entryY=0;entryDx=0;entryDy=5;entryPerimeter=0;" edge="1" parent="1" target="09ivK3anF053aiVqrCgx-4">
          <mxGeometry width="50" height="50" relative="1" as="geometry">
            <mxPoint x="410" y="485" as="sourcePoint" />
            <mxPoint x="222.75" y="475" as="targetPoint" />
            <Array as="points">
              <mxPoint x="419" y="485" />
            </Array>
          </mxGeometry>
        </mxCell>
        <mxCell id="sEuESF4rzVyC_rkCTEI_-64" value="4. Muestra formulario para crear cuenta&amp;nbsp;&amp;nbsp;" style="text;html=1;align=center;verticalAlign=middle;whiteSpace=wrap;rounded=0;" vertex="1" parent="1">
          <mxGeometry x="229" y="460" width="170" height="20" as="geometry" />
        </mxCell>
        <mxCell id="sEuESF4rzVyC_rkCTEI_-67" value="" style="endArrow=none;dashed=1;html=1;rounded=0;exitX=0.418;exitY=-0.012;exitDx=0;exitDy=0;exitPerimeter=0;" edge="1" parent="1" source="09ivK3anF053aiVqrCgx-24">
          <mxGeometry width="50" height="50" relative="1" as="geometry">
            <mxPoint x="205.68000000000006" y="1039.64" as="sourcePoint" />
            <mxPoint x="209" y="750" as="targetPoint" />
          </mxGeometry>
        </mxCell>
        <mxCell id="sEuESF4rzVyC_rkCTEI_-73" value="" style="endArrow=classic;html=1;rounded=0;fontSize=12;startSize=8;endSize=8;curved=1;entryX=0;entryY=0;entryDx=0;entryDy=5;entryPerimeter=0;" edge="1" parent="1">
          <mxGeometry width="50" height="50" relative="1" as="geometry">
            <mxPoint x="414" y="894.69" as="sourcePoint" />
            <mxPoint x="604" y="894.6899999999998" as="targetPoint" />
          </mxGeometry>
        </mxCell>
        <mxCell id="sEuESF4rzVyC_rkCTEI_-76" value="9. Guarda los datos" style="text;html=1;align=center;verticalAlign=middle;whiteSpace=wrap;rounded=0;" vertex="1" parent="1">
          <mxGeometry x="455.25" y="870" width="120" height="20" as="geometry" />
        </mxCell>
        <mxCell id="sEuESF4rzVyC_rkCTEI_-77" value="" style="endArrow=classic;html=1;rounded=0;fontSize=12;startSize=8;endSize=8;curved=1;dashed=1;" edge="1" parent="1">
          <mxGeometry width="50" height="50" relative="1" as="geometry">
            <mxPoint x="406.5" y="990" as="sourcePoint" />
            <mxPoint x="219" y="990" as="targetPoint" />
          </mxGeometry>
        </mxCell>
        <mxCell id="sEuESF4rzVyC_rkCTEI_-78" value="11. Notificar registro exitoso&amp;nbsp;" style="text;html=1;align=center;verticalAlign=middle;whiteSpace=wrap;rounded=0;" vertex="1" parent="1">
          <mxGeometry x="226.5" y="960" width="172.5" height="20" as="geometry" />
        </mxCell>
        <mxCell id="sEuESF4rzVyC_rkCTEI_-83" value="" style="endArrow=none;dashed=1;html=1;rounded=0;exitX=0.418;exitY=-0.012;exitDx=0;exitDy=0;exitPerimeter=0;" edge="1" parent="1" source="sEuESF4rzVyC_rkCTEI_-46">
          <mxGeometry width="50" height="50" relative="1" as="geometry">
            <mxPoint x="205" y="799" as="sourcePoint" />
            <mxPoint x="207" y="1040" as="targetPoint" />
          </mxGeometry>
        </mxCell>
        <mxCell id="sEuESF4rzVyC_rkCTEI_-90" value="" style="endArrow=classic;html=1;rounded=0;fontSize=12;startSize=8;endSize=8;curved=1;entryX=0;entryY=0;entryDx=0;entryDy=5;entryPerimeter=0;" edge="1" parent="1" target="09ivK3anF053aiVqrCgx-6">
          <mxGeometry width="50" height="50" relative="1" as="geometry">
            <mxPoint x="209" y="555" as="sourcePoint" />
            <mxPoint x="215.25" y="560" as="targetPoint" />
          </mxGeometry>
        </mxCell>
        <mxCell id="sEuESF4rzVyC_rkCTEI_-91" value="5. Digilencia el formulario" style="text;html=1;align=center;verticalAlign=middle;whiteSpace=wrap;rounded=0;" vertex="1" parent="1">
          <mxGeometry x="214" y="530" width="190" height="20" as="geometry" />
        </mxCell>
        <mxCell id="sEuESF4rzVyC_rkCTEI_-92" value="" style="endArrow=classic;html=1;rounded=0;fontSize=12;startSize=8;endSize=8;curved=1;entryX=0;entryY=0;entryDx=0;entryDy=5;entryPerimeter=0;" edge="1" parent="1" target="09ivK3anF053aiVqrCgx-8">
          <mxGeometry width="50" height="50" relative="1" as="geometry">
            <mxPoint x="210" y="625" as="sourcePoint" />
            <mxPoint x="404" y="624.58" as="targetPoint" />
          </mxGeometry>
        </mxCell>
        <mxCell id="sEuESF4rzVyC_rkCTEI_-96" value="" style="endArrow=none;dashed=1;html=1;rounded=0;exitX=0.418;exitY=-0.012;exitDx=0;exitDy=0;exitPerimeter=0;" edge="1" parent="1" target="09ivK3anF053aiVqrCgx-4">
          <mxGeometry width="50" height="50" relative="1" as="geometry">
            <mxPoint x="208.18000000000006" y="749.6400000000001" as="sourcePoint" />
            <mxPoint x="209" y="640" as="targetPoint" />
          </mxGeometry>
        </mxCell>
        <mxCell id="sEuESF4rzVyC_rkCTEI_-97" value="6. Pulsa botón &quot;Guardar&quot;" style="text;html=1;align=center;verticalAlign=middle;whiteSpace=wrap;rounded=0;" vertex="1" parent="1">
          <mxGeometry x="240.25" y="600" width="145" height="20" as="geometry" />
        </mxCell>
        <mxCell id="sEuESF4rzVyC_rkCTEI_-98" value="6. Válida los datos" style="text;html=1;align=center;verticalAlign=middle;whiteSpace=wrap;rounded=0;" vertex="1" parent="1">
          <mxGeometry x="445.25" y="630" width="140" height="20" as="geometry" />
        </mxCell>
        <mxCell id="sEuESF4rzVyC_rkCTEI_-100" value="" style="endArrow=classic;html=1;rounded=0;fontSize=12;startSize=8;endSize=8;curved=1;entryX=0;entryY=0;entryDx=0;entryDy=5;entryPerimeter=0;" edge="1" parent="1" source="sEuESF4rzVyC_rkCTEI_-57">
          <mxGeometry width="50" height="50" relative="1" as="geometry">
            <mxPoint x="415.25" y="660" as="sourcePoint" />
            <mxPoint x="605.25" y="660" as="targetPoint" />
          </mxGeometry>
        </mxCell>
        <mxCell id="sEuESF4rzVyC_rkCTEI_-101" value="" style="endArrow=classic;html=1;rounded=0;fontSize=12;startSize=8;endSize=8;curved=1;" edge="1" parent="1" target="sEuESF4rzVyC_rkCTEI_-57">
          <mxGeometry width="50" height="50" relative="1" as="geometry">
            <mxPoint x="415.25" y="660" as="sourcePoint" />
            <mxPoint x="605.25" y="660" as="targetPoint" />
          </mxGeometry>
        </mxCell>
        <mxCell id="sEuESF4rzVyC_rkCTEI_-57" value="" style="html=1;points=[[0,0,0,0,5],[0,1,0,0,-5],[1,0,0,0,5],[1,1,0,0,-5]];perimeter=orthogonalPerimeter;outlineConnect=0;targetShapes=umlLifeline;portConstraint=eastwest;newEdgeStyle={&quot;curved&quot;:0,&quot;rounded&quot;:0};" vertex="1" parent="1">
          <mxGeometry x="609" y="650" width="10" height="30" as="geometry" />
        </mxCell>
        <mxCell id="sEuESF4rzVyC_rkCTEI_-61" value="[Cuenta existente]" style="text;html=1;align=center;verticalAlign=middle;whiteSpace=wrap;rounded=0;" vertex="1" parent="1">
          <mxGeometry x="355.25" y="680" width="117.5" height="30" as="geometry" />
        </mxCell>
        <mxCell id="sEuESF4rzVyC_rkCTEI_-103" value="7. Cuenta existente" style="text;html=1;align=center;verticalAlign=middle;whiteSpace=wrap;rounded=0;" vertex="1" parent="1">
          <mxGeometry x="459" y="730" width="120" height="20" as="geometry" />
        </mxCell>
        <mxCell id="sEuESF4rzVyC_rkCTEI_-109" value="" style="html=1;points=[[0,0,0,0,5],[0,1,0,0,-5],[1,0,0,0,5],[1,1,0,0,-5]];perimeter=orthogonalPerimeter;outlineConnect=0;targetShapes=umlLifeline;portConstraint=eastwest;newEdgeStyle={&quot;curved&quot;:0,&quot;rounded&quot;:0};" vertex="1" parent="1">
          <mxGeometry x="410.25" y="730" width="10" height="30" as="geometry" />
        </mxCell>
        <mxCell id="sEuESF4rzVyC_rkCTEI_-113" value="10. Confirmar cuenta creada&lt;span style=&quot;background-color: transparent; color: light-dark(rgb(0, 0, 0), rgb(255, 255, 255));&quot;&gt;&amp;nbsp;&lt;/span&gt;&lt;span style=&quot;background-color: transparent; color: light-dark(rgb(0, 0, 0), rgb(255, 255, 255)); white-space: pre;&quot;&gt;&#x9;&lt;/span&gt;" style="text;html=1;align=center;verticalAlign=middle;whiteSpace=wrap;rounded=0;" vertex="1" parent="1">
          <mxGeometry x="439.61999999999995" y="921" width="169.38" height="30" as="geometry" />
        </mxCell>
        <mxCell id="09ivK3anF053aiVqrCgx-2" value="" style="endArrow=none;dashed=1;html=1;rounded=0;exitX=0.418;exitY=-0.012;exitDx=0;exitDy=0;exitPerimeter=0;" edge="1" parent="1" source="nKcrGqYYAuV-aAi5z4ue-6" target="sEuESF4rzVyC_rkCTEI_-43">
          <mxGeometry width="50" height="50" relative="1" as="geometry">
            <mxPoint x="208" y="439" as="sourcePoint" />
            <mxPoint x="209" y="349" as="targetPoint" />
          </mxGeometry>
        </mxCell>
        <mxCell id="09ivK3anF053aiVqrCgx-4" value="" style="html=1;points=[[0,0,0,0,5],[0,1,0,0,-5],[1,0,0,0,5],[1,1,0,0,-5]];perimeter=orthogonalPerimeter;outlineConnect=0;targetShapes=umlLifeline;portConstraint=eastwest;newEdgeStyle={&quot;curved&quot;:0,&quot;rounded&quot;:0};" vertex="1" parent="1">
          <mxGeometry x="204" y="480" width="10" height="30" as="geometry" />
        </mxCell>
        <mxCell id="09ivK3anF053aiVqrCgx-7" value="" style="endArrow=classic;html=1;rounded=0;fontSize=12;startSize=8;endSize=8;curved=1;entryX=1;entryY=0;entryDx=0;entryDy=5;entryPerimeter=0;" edge="1" parent="1" target="09ivK3anF053aiVqrCgx-6">
          <mxGeometry width="50" height="50" relative="1" as="geometry">
            <mxPoint x="415.25" y="560" as="sourcePoint" />
            <mxPoint x="215.25" y="560" as="targetPoint" />
          </mxGeometry>
        </mxCell>
        <mxCell id="09ivK3anF053aiVqrCgx-6" value="" style="html=1;points=[[0,0,0,0,5],[0,1,0,0,-5],[1,0,0,0,5],[1,1,0,0,-5]];perimeter=orthogonalPerimeter;outlineConnect=0;targetShapes=umlLifeline;portConstraint=eastwest;newEdgeStyle={&quot;curved&quot;:0,&quot;rounded&quot;:0};" vertex="1" parent="1">
          <mxGeometry x="410.25" y="550" width="10" height="30" as="geometry" />
        </mxCell>
        <mxCell id="09ivK3anF053aiVqrCgx-8" value="" style="html=1;points=[[0,0,0,0,5],[0,1,0,0,-5],[1,0,0,0,5],[1,1,0,0,-5]];perimeter=orthogonalPerimeter;outlineConnect=0;targetShapes=umlLifeline;portConstraint=eastwest;newEdgeStyle={&quot;curved&quot;:0,&quot;rounded&quot;:0};" vertex="1" parent="1">
          <mxGeometry x="409" y="620" width="10" height="30" as="geometry" />
        </mxCell>
        <mxCell id="09ivK3anF053aiVqrCgx-12" value="" style="endArrow=classic;html=1;rounded=0;fontSize=12;startSize=8;endSize=8;edgeStyle=orthogonalEdgeStyle;" edge="1" parent="1">
          <mxGeometry width="50" height="50" relative="1" as="geometry">
            <mxPoint x="586.47" y="750" as="sourcePoint" />
            <mxPoint x="420.25" y="750" as="targetPoint" />
            <Array as="points">
              <mxPoint x="612.72" y="750" />
            </Array>
          </mxGeometry>
        </mxCell>
        <mxCell id="09ivK3anF053aiVqrCgx-16" value="" style="endArrow=classic;html=1;rounded=0;fontSize=12;startSize=8;endSize=8;curved=1;" edge="1" parent="1">
          <mxGeometry width="50" height="50" relative="1" as="geometry">
            <mxPoint x="609" y="950" as="sourcePoint" />
            <mxPoint x="429" y="950" as="targetPoint" />
          </mxGeometry>
        </mxCell>
        <mxCell id="09ivK3anF053aiVqrCgx-17" value="8. Notificar error (Cuenta ya existe)" style="text;html=1;align=center;verticalAlign=middle;whiteSpace=wrap;rounded=0;" vertex="1" parent="1">
          <mxGeometry x="219" y="780" width="190" height="20" as="geometry" />
        </mxCell>
        <mxCell id="09ivK3anF053aiVqrCgx-18" value="" style="html=1;points=[[0,0,0,0,5],[0,1,0,0,-5],[1,0,0,0,5],[1,1,0,0,-5]];perimeter=orthogonalPerimeter;outlineConnect=0;targetShapes=umlLifeline;portConstraint=eastwest;newEdgeStyle={&quot;curved&quot;:0,&quot;rounded&quot;:0};" vertex="1" parent="1">
          <mxGeometry x="206.51" y="780" width="10" height="30" as="geometry" />
        </mxCell>
        <mxCell id="09ivK3anF053aiVqrCgx-19" value="" style="endArrow=classic;html=1;rounded=0;fontSize=12;startSize=8;endSize=8;edgeStyle=orthogonalEdgeStyle;dashed=1;" edge="1" parent="1">
          <mxGeometry width="50" height="50" relative="1" as="geometry">
            <mxPoint x="299" y="800" as="sourcePoint" />
            <mxPoint x="216.51" y="800" as="targetPoint" />
            <Array as="points">
              <mxPoint x="408.98" y="800" />
            </Array>
          </mxGeometry>
        </mxCell>
        <mxCell id="09ivK3anF053aiVqrCgx-20" value="alt" style="shape=umlFrame;whiteSpace=wrap;html=1;pointerEvents=0;" vertex="1" parent="1">
          <mxGeometry x="189" y="681" width="460" height="170" as="geometry" />
        </mxCell>
        <mxCell id="09ivK3anF053aiVqrCgx-21" value="" style="endArrow=none;dashed=1;html=1;rounded=0;exitX=0.5;exitY=0;exitDx=0;exitDy=0;" edge="1" parent="1" source="sEuESF4rzVyC_rkCTEI_-48" target="sEuESF4rzVyC_rkCTEI_-57">
          <mxGeometry width="50" height="50" relative="1" as="geometry">
            <mxPoint x="614" y="1120" as="sourcePoint" />
            <mxPoint x="614" y="920" as="targetPoint" />
          </mxGeometry>
        </mxCell>
        <mxCell id="09ivK3anF053aiVqrCgx-22" value="" style="html=1;points=[[0,0,0,0,5],[0,1,0,0,-5],[1,0,0,0,5],[1,1,0,0,-5]];perimeter=orthogonalPerimeter;outlineConnect=0;targetShapes=umlLifeline;portConstraint=eastwest;newEdgeStyle={&quot;curved&quot;:0,&quot;rounded&quot;:0};" vertex="1" parent="1">
          <mxGeometry x="609" y="880" width="10" height="30" as="geometry" />
        </mxCell>
        <mxCell id="09ivK3anF053aiVqrCgx-23" value="" style="html=1;points=[[0,0,0,0,5],[0,1,0,0,-5],[1,0,0,0,5],[1,1,0,0,-5]];perimeter=orthogonalPerimeter;outlineConnect=0;targetShapes=umlLifeline;portConstraint=eastwest;newEdgeStyle={&quot;curved&quot;:0,&quot;rounded&quot;:0};" vertex="1" parent="1">
          <mxGeometry x="609" y="880" width="10" height="30" as="geometry" />
        </mxCell>
        <mxCell id="09ivK3anF053aiVqrCgx-25" value="" style="endArrow=none;dashed=1;html=1;rounded=0;exitX=0.418;exitY=-0.012;exitDx=0;exitDy=0;exitPerimeter=0;" edge="1" parent="1" target="09ivK3anF053aiVqrCgx-24">
          <mxGeometry width="50" height="50" relative="1" as="geometry">
            <mxPoint x="205.68000000000006" y="1039.64" as="sourcePoint" />
            <mxPoint x="209" y="750" as="targetPoint" />
          </mxGeometry>
        </mxCell>
        <mxCell id="09ivK3anF053aiVqrCgx-24" value="" style="html=1;points=[[0,0,0,0,5],[0,1,0,0,-5],[1,0,0,0,5],[1,1,0,0,-5]];perimeter=orthogonalPerimeter;outlineConnect=0;targetShapes=umlLifeline;portConstraint=eastwest;newEdgeStyle={&quot;curved&quot;:0,&quot;rounded&quot;:0};" vertex="1" parent="1">
          <mxGeometry x="204" y="980" width="10" height="30" as="geometry" />
        </mxCell>
        <mxCell id="09ivK3anF053aiVqrCgx-27" value="" style="html=1;points=[[0,0,0,0,5],[0,1,0,0,-5],[1,0,0,0,5],[1,1,0,0,-5]];perimeter=orthogonalPerimeter;outlineConnect=0;targetShapes=umlLifeline;portConstraint=eastwest;newEdgeStyle={&quot;curved&quot;:0,&quot;rounded&quot;:0};" vertex="1" parent="1">
          <mxGeometry x="410.25" y="940" width="10" height="30" as="geometry" />
        </mxCell>
        <mxCell id="nKcrGqYYAuV-aAi5z4ue-2" value="" style="html=1;points=[[0,0,0,0,5],[0,1,0,0,-5],[1,0,0,0,5],[1,1,0,0,-5]];perimeter=orthogonalPerimeter;outlineConnect=0;targetShapes=umlLifeline;portConstraint=eastwest;newEdgeStyle={&quot;curved&quot;:0,&quot;rounded&quot;:0};" vertex="1" parent="1">
          <mxGeometry x="409.25" y="270" width="10" height="30" as="geometry" />
        </mxCell>
        <mxCell id="nKcrGqYYAuV-aAi5z4ue-3" value="" style="endArrow=classic;html=1;rounded=0;entryX=0;entryY=0;entryDx=0;entryDy=5;entryPerimeter=0;" edge="1" parent="1" target="nKcrGqYYAuV-aAi5z4ue-2">
          <mxGeometry width="50" height="50" relative="1" as="geometry">
            <mxPoint x="219.25" y="275" as="sourcePoint" />
            <mxPoint x="319.25" y="250" as="targetPoint" />
          </mxGeometry>
        </mxCell>
        <mxCell id="nKcrGqYYAuV-aAi5z4ue-4" value="1. Acceder al apartado &quot;Administrar cuenta&quot;" style="text;html=1;align=center;verticalAlign=middle;whiteSpace=wrap;rounded=0;" vertex="1" parent="1">
          <mxGeometry x="209.25" y="250" width="211" height="20" as="geometry" />
        </mxCell>
        <mxCell id="nKcrGqYYAuV-aAi5z4ue-7" value="" style="endArrow=classic;html=1;rounded=0;entryX=0;entryY=0;entryDx=0;entryDy=5;entryPerimeter=0;" edge="1" parent="1" target="nKcrGqYYAuV-aAi5z4ue-6">
          <mxGeometry width="50" height="50" relative="1" as="geometry">
            <mxPoint x="410" y="325" as="sourcePoint" />
            <mxPoint x="324" y="300" as="targetPoint" />
          </mxGeometry>
        </mxCell>
        <mxCell id="nKcrGqYYAuV-aAi5z4ue-8" value="2. Mostrar apartado" style="text;html=1;align=center;verticalAlign=middle;whiteSpace=wrap;rounded=0;" vertex="1" parent="1">
          <mxGeometry x="214" y="300" width="211" height="20" as="geometry" />
        </mxCell>
        <mxCell id="nKcrGqYYAuV-aAi5z4ue-9" value="" style="endArrow=none;dashed=1;html=1;rounded=0;exitX=0.418;exitY=-0.012;exitDx=0;exitDy=0;exitPerimeter=0;" edge="1" parent="1" source="09ivK3anF053aiVqrCgx-4" target="nKcrGqYYAuV-aAi5z4ue-6">
          <mxGeometry width="50" height="50" relative="1" as="geometry">
            <mxPoint x="208" y="480" as="sourcePoint" />
            <mxPoint x="209" y="239" as="targetPoint" />
          </mxGeometry>
        </mxCell>
        <mxCell id="nKcrGqYYAuV-aAi5z4ue-6" value="" style="html=1;points=[[0,0,0,0,5],[0,1,0,0,-5],[1,0,0,0,5],[1,1,0,0,-5]];perimeter=orthogonalPerimeter;outlineConnect=0;targetShapes=umlLifeline;portConstraint=eastwest;newEdgeStyle={&quot;curved&quot;:0,&quot;rounded&quot;:0};" vertex="1" parent="1">
          <mxGeometry x="204" y="320" width="10" height="30" as="geometry" />
        </mxCell>
      </root>
    </mxGraphModel>
  </diagram>
  <diagram id="nIOQxxJyPP5hoQOKl2aF" name="Página-2">
    <mxGraphModel dx="1111" dy="507" grid="1" gridSize="10" guides="1" tooltips="1" connect="1" arrows="1" fold="1" page="1" pageScale="1" pageWidth="827" pageHeight="1169" math="0" shadow="0">
      <root>
        <mxCell id="0" />
        <mxCell id="1" parent="0" />
      </root>
    </mxGraphModel>
  </diagram>
</mxfile>
